<?xml version="1.0" standalone="no"?>
<!DOCTYPE svg PUBLIC "-//W3C//DTD SVG 20010904//EN"
 "http://www.w3.org/TR/2001/REC-SVG-20010904/DTD/svg10.dtd">
<svg version="1.0" xmlns="http://www.w3.org/2000/svg"
 width="1024.000000pt" height="1024.000000pt" viewBox="0 0 1024.000000 1024.000000"
 preserveAspectRatio="xMidYMid meet">
<metadata>
Created by potrace 1.14, written by Peter Selinger 2001-2017
</metadata>
<g transform="translate(0.000000,1024.000000) scale(0.100000,-0.100000)"
fill="#000000" stroke="none">
<path d="M6308 9555 c-2 -1 -41 -5 -88 -9 -233 -16 -498 -71 -725 -150 -95
-33 -126 -45 -240 -95 -86 -38 -242 -118 -255 -131 -3 -3 -25 -16 -50 -30 -25
-13 -49 -28 -55 -32 -5 -4 -41 -29 -80 -54 -283 -188 -612 -509 -808 -789 -31
-44 -61 -85 -65 -91 -26 -31 -142 -236 -196 -349 -96 -197 -204 -515 -231
-685 -3 -19 -10 -61 -16 -93 -5 -32 -12 -74 -15 -95 -2 -20 -6 -50 -8 -67 -18
-123 -24 -387 -12 -575 8 -135 9 -145 19 -205 4 -22 9 -56 11 -75 9 -70 49
-246 82 -358 18 -64 33 -117 31 -119 -1 -1 -641 -643 -1423 -1425 -940 -941
-1430 -1439 -1449 -1472 -55 -94 -55 -99 -55 -892 1 -482 4 -744 11 -770 29
-104 91 -189 186 -250 100 -65 54 -63 1189 -63 1126 -1 1080 -3 1184 57 89 51
177 170 196 263 4 19 7 203 8 409 l1 375 400 5 400 5 69 34 c114 55 205 166
231 281 5 19 9 197 11 395 1 198 2 368 3 378 1 16 24 17 344 17 372 0 418 5
502 54 51 30 86 64 180 170 33 38 69 78 80 91 11 12 47 52 80 89 202 227 176
205 226 196 24 -5 68 -11 98 -15 30 -4 61 -8 70 -10 9 -1 68 -6 131 -10 287
-20 586 -3 830 45 30 6 66 13 80 16 59 11 261 68 339 96 445 156 843 418 1190
782 31 32 65 68 76 80 11 12 44 50 73 86 29 36 61 74 71 85 96 106 302 454
386 650 52 123 138 391 159 500 2 5 8 35 14 65 15 71 21 104 27 160 3 25 8 54
10 65 11 56 20 221 20 400 0 322 -15 456 -91 803 -2 13 -24 85 -49 160 -74
232 -164 428 -300 650 -144 234 -388 517 -625 722 -41 36 -77 67 -80 70 -3 3
-32 25 -65 50 -33 25 -61 48 -63 53 -2 4 -9 7 -16 7 -7 0 -22 9 -33 20 -42 39
-251 162 -388 230 -341 167 -676 257 -1080 290 -86 7 -450 11 -457 5z m1243
-1409 c358 -92 618 -422 620 -790 0 -116 -9 -179 -41 -276 -24 -74 -82 -195
-99 -210 -3 -3 -18 -21 -32 -40 -87 -116 -230 -221 -369 -273 -163 -60 -425
-62 -562 -4 -21 9 -38 14 -38 12 0 -7 -134 66 -175 96 -115 84 -232 229 -282
351 -53 129 -77 312 -58 443 29 207 141 402 307 535 65 53 190 127 226 134 9
1 24 6 32 10 90 39 338 45 471 12z"/>
</g>
</svg>
